<svg xmlns="http://www.w3.org/2000/svg" xmlns:xlink="http://www.w3.org/1999/xlink" width="40" height="40">
  <defs>
    <rect id="logo-a" width="33.75" height="23.989"/>
    <path id="logo-c" d="M14.4761029,13.5146237 L20.8878732,13.5146237 C24.8620891,13.5146237 28.0836397,16.7330828 28.0836397,20.7032534 C28.0836397,24.6653454 24.8619853,27.891883 20.8878732,27.891883 L7.19576655,27.891883 C3.22155056,27.891883 0,24.6734239 0,20.7032534 C0,20.6951601 1.3442452e-05,20.6870699 4.03063108e-05,20.6789828 C1.34424737e-05,20.6708585 0,20.662731 0,20.6546004 L0,7.23728259 C0,3.24045965 3.24058603,0 7.23805147,0 C11.2273829,0 14.4761029,3.24024179 14.4761029,7.23728259 L14.4761029,13.5146237 Z"/>
  </defs>
  <g fill="none" fill-rule="evenodd">

    <mask id="logo-b" fill="#fff">
      <use xlink:href="#logo-a"/>
    </mask>
    <use fill="#D8D8D8" opacity="0" transform="matrix(1 0 0 -1 0 23.99)" xlink:href="#logo-a"/>
    <g mask="url(#logo-b)">
      <g transform="rotate(135 14.877 15.943)">
        <mask id="logo-d" fill="#fff">
          <use xlink:href="#logo-c"/>
        </mask>
        <use fill="#0FA5A5" xlink:href="#logo-c"/>
        <polygon fill="#FFC021" points="7.238 20.703 14.476 13.515 28.084 13.515 28.084 27.892 7.238 27.892" mask="url(#logo-d)"/>
        <polygon fill="#0FA5A5" points="0 8.01 14.476 8.01 14.476 13.515 7.61 20.457 0 20.457" mask="url(#logo-d)"/>
        <path fill="#3BC4A1" d="M14.4761029,13.5146237 L14.4761029,20.6546004 C14.4761029,24.6514234 11.2355169,27.891883 7.23805147,27.891883 C3.25683497,27.891883 0.0132198463,24.6648101 4.03063116e-05,20.6789828 C0.0131647412,16.7279933 3.22977225,13.5146237 7.19576655,13.5146237 L14.4761029,13.5146237 Z" mask="url(#logo-d)"/>
      </g>
    </g>

  </g>
</svg>